<?xml version="1.0" encoding="utf-8"?>
<!-- Generator: Adobe Illustrator 26.5.0, SVG Export Plug-In . SVG Version: 6.00 Build 0)  -->
<svg version="1.1" id="Livello_1" xmlns="http://www.w3.org/2000/svg" xmlns:xlink="http://www.w3.org/1999/xlink" x="0px" y="0px"
	 viewBox="0 0 15 13.9" style="enable-background:new 0 0 15 13.9;" xml:space="preserve">
<style type="text/css">
	.st0{fill:#FFFFFF;}
	.st1{fill:#86868B;}
</style>
<path class="st0" d="M14,12.6l-3.5-3.5c1.9-2.3,1.6-5.7-0.8-7.6C7.4-0.4,4-0.1,2.1,2.3S0.5,8,2.8,9.9c2,1.6,4.9,1.6,6.9,0l3.5,3.5
	c0.2,0.2,0.6,0.2,0.8,0S14.2,12.9,14,12.6L14,12.6L14,12.6z M2,5.7c0-2.4,1.9-4.3,4.3-4.3c2.4,0,4.3,1.9,4.3,4.3
	c0,2.4-1.9,4.3-4.3,4.3C3.9,10,2,8.1,2,5.7z"/>
<path class="st1" d="M14,56.9l-3.5-3.5c1.9-2.3,1.6-5.7-0.8-7.6S4,44.2,2.1,46.5s-1.6,5.7,0.8,7.6c2,1.6,4.9,1.6,6.9,0l3.5,3.5
	c0.2,0.2,0.6,0.2,0.8,0S14.2,57.1,14,56.9L14,56.9z M2,50c0-2.4,1.9-4.3,4.3-4.3c2.4,0,4.3,1.9,4.3,4.3c0,2.4-1.9,4.3-4.3,4.3
	C3.9,54.3,2,52.4,2,50z"/>
</svg>
